HIERARCHY
ROOT joint_Root
{
	OFFSET 0.0 0.0 0.0
	CHANNELS 6 Xposition Yposition Zposition Zrotation Xrotation Yrotation 
	JOINT Hips
	{
		OFFSET -0.726466 93.3139 -2.00062
		CHANNELS 6 Xposition Yposition Zposition Zrotation Xrotation Yrotation 
		JOINT Spine
		{
			OFFSET 15.7357 0.0 0.0
			CHANNELS 6 Xposition Yposition Zposition Zrotation Xrotation Yrotation 
			JOINT Chest
			{
				OFFSET 8.98455 -0.406207 0.0
				CHANNELS 6 Xposition Yposition Zposition Zrotation Xrotation Yrotation 
				JOINT Neck
				{
					OFFSET 16.3773 0.0 0.0
					CHANNELS 6 Xposition Yposition Zposition Zrotation Xrotation Yrotation 
					JOINT Head
					{
						OFFSET 6.45672 0.0 0.0
						CHANNELS 6 Xposition Yposition Zposition Zrotation Xrotation Yrotation 
						End Site
						{
							OFFSET 0.0 0.0 0.0
						}
					}
				}
				JOINT Shoulder_L
				{
					OFFSET 12.9942 -0.242716 4.98039
					CHANNELS 6 Xposition Yposition Zposition Zrotation Xrotation Yrotation 
					JOINT UpperArm_L
					{
						OFFSET 5.34809 0.0 0.0
						CHANNELS 6 Xposition Yposition Zposition Zrotation Xrotation Yrotation 
						JOINT LowerArm_L
						{
							OFFSET 24.3286 1.87007e-05 0.0
							CHANNELS 6 Xposition Yposition Zposition Zrotation Xrotation Yrotation 
							JOINT Hand_L
							{
								OFFSET 22.2916 0.0 0.0
								CHANNELS 6 Xposition Yposition Zposition Zrotation Xrotation Yrotation 
								End Site
								{
									OFFSET 0.0 0.0 0.0
								}
							}
						}
					}
				}
				JOINT Shoulder_R
				{
					OFFSET 12.9945 -0.242716 -4.98039
					CHANNELS 6 Xposition Yposition Zposition Zrotation Xrotation Yrotation 
					JOINT UpperArm_R
					{
						OFFSET -5.34813 0.0 0.0
						CHANNELS 6 Xposition Yposition Zposition Zrotation Xrotation Yrotation 
						JOINT LowerArm_R
						{
							OFFSET -24.3289 0.000322201 0.0
							CHANNELS 6 Xposition Yposition Zposition Zrotation Xrotation Yrotation 
							JOINT Hand_R
							{
								OFFSET -22.2915 -0.000108084 0.0
								CHANNELS 6 Xposition Yposition Zposition Zrotation Xrotation Yrotation 
								End Site
								{
									OFFSET 0.0 0.0 0.0
								}
							}
						}
					}
				}
			}
		}
		JOINT UpperLeg_L
		{
			OFFSET -2.19248 -6.46944 0.0
			CHANNELS 6 Xposition Yposition Zposition Zrotation Xrotation Yrotation 
			JOINT LowerLeg_L
			{
				OFFSET 39.0811 0.0 -1.23785e-05
				CHANNELS 6 Xposition Yposition Zposition Zrotation Xrotation Yrotation 
				JOINT Foot_L
				{
					OFFSET 40.9854 0.0 -1.26872e-05
					CHANNELS 6 Xposition Yposition Zposition Zrotation Xrotation Yrotation 
					JOINT Toes_L
					{
						OFFSET 11.7543 0.0 0.0
						CHANNELS 6 Xposition Yposition Zposition Zrotation Xrotation Yrotation 
						End Site
						{
							OFFSET 0.0 0.0 0.0
						}
					}
				}
			}
		}
		JOINT UpperLeg_R
		{
			OFFSET -2.19251 6.46944 0.0
			CHANNELS 6 Xposition Yposition Zposition Zrotation Xrotation Yrotation 
			JOINT LowerLeg_R
			{
				OFFSET -39.0811 -0.00228153 -0.0401928
				CHANNELS 6 Xposition Yposition Zposition Zrotation Xrotation Yrotation 
				JOINT Foot_R
				{
					OFFSET -40.9854 0.0 0.0
					CHANNELS 6 Xposition Yposition Zposition Zrotation Xrotation Yrotation 
					JOINT Toes_R
					{
						OFFSET -11.7543 0.0 0.0
						CHANNELS 6 Xposition Yposition Zposition Zrotation Xrotation Yrotation 
						End Site
						{
							OFFSET 0.0 0.0 0.0
						}
					}
				}
			}
		}
	}
}
MOTION
Frames:	8
Frame Time:	0.0333333
0.000000 0.000000 0.000000 0.000000 0.000000 -0.000000 -1.238290 92.095500 -1.752360 87.617700 -1.500620 4.962160 15.735700 0.000005 -0.000001 83.962700 83.295700 -83.514800 8.984550 -0.406207 -0.000000 5.575140 -1.415450 0.963845 16.377300 -0.000001 -0.000001 3.820600 -1.776400 0.836161 6.456720 -0.000001 -0.000000 3.554620 -0.758011 -0.313853 12.994200 -0.242716 4.980390 -90.014500 0.049584 -73.725700 5.348090 -0.000007 -0.000001 -66.133500 36.424900 -17.164300 24.328600 0.000019 0.000005 2.541400 5.083820 -26.605100 22.291600 -0.000001 0.000005 6.984640 5.635390 -13.751200 12.994500 -0.242716 -4.980390 88.351000 5.755230 -73.982100 -5.348130 -0.000001 -0.000004 -65.270400 36.243800 -18.303400 -24.328900 0.000322 -0.000009 -5.208920 -10.979200 -25.574400 -22.291500 -0.000108 -0.000004 7.929640 5.581000 -10.265400 -2.192480 -6.469440 -0.000000 -169.230000 -20.203900 -2.876310 39.081100 -0.000007 -0.000012 -0.135182 0.309460 23.597300 40.985400 -0.000006 -0.000013 -5.229630 0.357325 -63.450700 11.754300 -0.000000 0.000003 -0.000178 -0.001682 -16.641200 -2.192510 6.469440 -0.000001 174.844000 24.023800 179.367000 -39.081100 -0.002282 -0.040193 0.031289 -0.071583 21.342700 -40.985400 0.000008 0.000006 0.186688 4.298590 -63.666800 -11.754300 -0.000006 -0.000006 -0.003130 -0.042062 -18.283700
0.000000 0.000000 0.000000 0.000000 0.000000 -0.000000 -1.243120 92.105700 -1.762690 87.609100 -1.500170 4.855820 15.735700 0.000005 -0.000001 84.054200 83.337600 -83.595800 8.984550 -0.406207 -0.000000 5.494050 -1.386170 0.982227 16.377300 -0.000001 -0.000001 3.622270 -1.734790 0.785550 6.456720 -0.000001 -0.000000 3.369940 -0.832701 -0.232443 12.994200 -0.242716 4.980390 -89.989000 -0.036767 -73.315500 5.348090 -0.000007 -0.000001 -66.192900 33.196000 -16.496600 24.328600 0.000019 0.000005 2.536470 4.907790 -27.374500 22.291600 -0.000001 0.000005 7.818180 5.639910 -14.118200 12.994500 -0.242716 -4.980390 88.357000 5.583380 -73.573500 -5.348130 -0.000001 -0.000004 -65.572100 33.368100 -17.840200 -24.328900 0.000322 -0.000009 -4.153300 -8.902630 -25.131700 -22.291500 -0.000108 -0.000004 8.721180 5.585750 -10.524700 -2.192480 -6.469440 -0.000000 -169.268000 -20.209400 -2.964560 39.081100 -0.000007 -0.000012 -0.132064 0.303138 23.540700 40.985400 -0.000006 -0.000013 -5.229270 0.337186 -63.420900 11.754300 -0.000000 0.000003 -0.000181 -0.001705 -16.642000 -2.192510 6.469440 -0.000001 174.890000 24.054800 179.265000 -39.081100 -0.002282 -0.040193 0.029922 -0.068257 21.293200 -40.985400 0.000008 0.000006 0.073133 4.347560 -63.571500 -11.754300 -0.000006 -0.000006 -0.003027 -0.040904 -18.236600
0.000000 0.000000 0.000000 0.000000 0.000000 -0.000000 -1.253940 92.121300 -1.771660 87.601800 -1.437370 4.728900 15.735700 0.000005 -0.000001 83.815900 83.438600 -83.365100 8.984550 -0.406207 -0.000000 5.287510 -1.420290 0.966104 16.377300 -0.000001 -0.000001 3.555830 -1.730090 0.856169 6.456720 -0.000001 -0.000000 3.209980 -0.793160 -0.180468 12.994200 -0.242716 4.980390 -89.907100 -0.299589 -72.767000 5.348090 -0.000007 -0.000001 -65.734000 29.016400 -15.998700 24.328600 0.000019 0.000005 2.132850 4.071540 -27.677700 22.291600 -0.000001 0.000005 8.661040 5.639960 -14.121800 12.994500 -0.242716 -4.980390 88.337300 5.457100 -73.025800 -5.348130 -0.000001 -0.000004 -65.216300 29.540800 -17.576000 -24.328900 0.000322 -0.000009 -3.168960 -7.064370 -24.229200 -22.291500 -0.000108 -0.000004 10.280000 5.591760 -10.861700 -2.192480 -6.469440 -0.000000 -169.311000 -20.157600 -3.076660 39.081100 -0.000007 -0.000012 -0.132313 0.305202 23.438200 40.985400 -0.000006 -0.000013 -5.235950 0.331119 -63.351500 11.754300 -0.000000 0.000003 -0.000187 -0.001746 -16.643600 -2.192510 6.469440 -0.000001 174.963000 24.162400 179.142000 -39.081100 -0.002282 -0.040193 0.031332 -0.072028 21.252000 -40.985400 0.000008 0.000006 0.216871 4.364820 -63.527900 -11.754300 -0.000006 -0.000006 -0.003158 -0.042376 -18.296500
0.000000 0.000000 0.000000 0.000000 0.000000 -0.000000 -1.279890 92.126500 -1.760440 87.586000 -1.389910 4.643990 15.735700 0.000005 -0.000001 83.471700 83.576000 -83.020900 8.984550 -0.406207 -0.000000 5.005940 -1.468650 0.964869 16.377300 -0.000001 -0.000001 3.498550 -1.689700 0.889992 6.456720 -0.000001 -0.000000 3.064690 -0.808899 -0.058552 12.994200 -0.242716 4.980390 -89.792600 -0.647947 -72.253200 5.348090 -0.000007 -0.000001 -64.091200 24.521800 -15.979200 24.328600 0.000019 0.000005 2.231520 4.305660 -27.430000 22.291600 -0.000001 0.000005 9.117250 5.640050 -14.129900 12.994500 -0.242716 -4.980390 88.292400 5.411290 -72.457100 -5.348130 -0.000001 -0.000004 -63.730400 24.888500 -17.938700 -24.328900 0.000322 -0.000009 -2.114770 -5.173060 -22.261000 -22.291500 -0.000108 -0.000004 11.860800 5.596460 -11.133000 -2.192480 -6.469440 -0.000000 -169.305000 -20.180800 -3.145170 39.081100 -0.000007 -0.000012 -0.132580 0.306409 23.397700 40.985400 -0.000006 -0.000013 -5.238910 0.401024 -63.325800 11.754300 -0.000000 0.000003 -0.000170 -0.001613 -16.638700 -2.192510 6.469440 -0.000001 175.013000 24.234300 179.116000 -39.081100 -0.002282 -0.040193 0.030731 -0.070794 21.166600 -40.985400 0.000008 0.000006 0.191464 4.389410 -63.520200 -11.754300 -0.000006 -0.000006 -0.002993 -0.040528 -18.221300
0.000000 0.000000 0.000000 0.000000 0.000000 -0.000000 -1.299660 92.135600 -1.751470 87.572800 -1.357610 4.567930 15.735700 0.000005 -0.000001 83.013200 83.735900 -82.560900 8.984550 -0.406207 -0.000000 4.676630 -1.533330 0.966316 16.377300 -0.000001 -0.000001 3.305500 -1.612290 0.992659 6.456720 -0.000001 -0.000000 2.950080 -0.771948 -0.006801 12.994200 -0.242716 4.980390 -89.648700 -1.072210 -71.858300 5.348090 -0.000007 -0.000001 -61.118500 19.910600 -16.447500 24.328600 0.000019 0.000005 2.555980 5.113860 -26.601800 22.291600 -0.000001 0.000005 9.626580 5.643020 -14.381800 12.994500 -0.242716 -4.980390 88.277200 5.332760 -72.066900 -5.348130 -0.000001 -0.000004 -61.135800 19.204100 -18.836900 -24.328900 0.000322 -0.000009 -0.923514 -2.581430 -19.671000 -22.291500 -0.000108 -0.000004 12.938300 5.595210 -11.059900 -2.192480 -6.469440 -0.000000 -169.313000 -20.157400 -3.199130 39.081100 -0.000007 -0.000012 -0.130214 0.301846 23.335100 40.985400 -0.000006 -0.000013 -5.254580 0.384742 -63.290800 11.754300 -0.000000 0.000003 -0.000171 -0.001620 -16.638900 -2.192510 6.469440 -0.000001 175.064000 24.325500 179.065000 -39.081100 -0.002282 -0.040193 0.030536 -0.070442 21.124600 -40.985400 0.000008 0.000006 0.190301 4.405130 -63.478300 -11.754300 -0.000006 -0.000006 -0.003026 -0.040897 -18.236300
0.000000 0.000000 0.000000 0.000000 0.000000 -0.000000 -1.305050 92.141800 -1.728900 87.516600 -1.401000 4.453610 15.735700 0.000005 -0.000001 82.892400 83.910300 -82.415800 8.984550 -0.406207 -0.000000 4.327540 -1.518840 1.009510 16.377300 -0.000001 -0.000001 2.888120 -1.469130 1.082770 6.456720 -0.000001 -0.000000 2.662640 -0.731250 0.102155 12.994200 -0.242716 4.980390 -89.488700 -1.526230 -71.475900 5.348090 -0.000007 -0.000001 -57.606800 13.807300 -17.182300 24.328600 0.000019 0.000005 2.800890 5.880360 -25.525600 22.291600 -0.000001 0.000005 10.366100 5.641690 -14.268000 12.994500 -0.242716 -4.980390 88.391300 4.898430 -71.793700 -5.348130 -0.000001 -0.000004 -58.188300 11.973200 -19.957900 -24.328900 0.000322 -0.000009 -0.272960 -0.868201 -17.389300 -22.291500 -0.000108 -0.000004 14.013000 5.583280 -10.389600 -2.192480 -6.469440 -0.000000 -169.291000 -20.131700 -3.288650 39.081100 -0.000007 -0.000012 -0.131247 0.304464 23.319800 40.985400 -0.000006 -0.000013 -5.283410 0.308172 -63.304000 11.754300 -0.000000 0.000003 -0.000184 -0.001724 -16.642700 -2.192510 6.469440 -0.000001 175.165000 24.339000 178.991000 -39.081100 -0.002282 -0.040193 0.030488 -0.070626 21.040600 -40.985400 0.000008 0.000006 0.245618 4.463330 -63.443400 -11.754300 -0.000006 -0.000006 -0.003083 -0.041543 -18.262600
0.000000 0.000000 0.000000 0.000000 0.000000 -0.000000 -1.281070 92.141600 -1.681390 87.526700 -1.478040 4.394020 15.735700 0.000005 -0.000001 83.049000 84.085600 -82.575900 8.984550 -0.406207 -0.000000 3.982970 -1.445050 0.995468 16.377300 -0.000001 -0.000001 2.313800 -1.318200 1.152010 6.456720 -0.000001 -0.000000 2.226730 -0.654963 0.388064 12.994200 -0.242716 4.980390 -89.288200 -2.082010 -71.120800 5.348090 -0.000007 -0.000001 -54.561500 4.730170 -18.015300 24.328600 0.000019 0.000005 2.874470 6.301480 -24.582000 22.291600 -0.000001 0.000005 11.153200 5.635710 -13.777000 12.994500 -0.242716 -4.980390 88.600200 4.188530 -71.501600 -5.348130 -0.000001 -0.000004 -54.899800 3.559420 -21.426400 -24.328900 0.000322 -0.000009 0.138530 0.498148 -15.656000 -22.291500 -0.000108 -0.000004 15.121500 5.564300 -9.400090 -2.192480 -6.469440 -0.000000 -169.323000 -20.112300 -3.281200 39.081100 -0.000007 -0.000012 -0.132167 0.306933 23.297000 40.985400 -0.000006 -0.000013 -5.302440 0.233392 -63.350400 11.754300 -0.000000 0.000003 -0.000170 -0.001617 -16.638800 -2.192510 6.469440 -0.000001 175.150000 24.308500 178.981000 -39.081100 -0.002282 -0.040193 0.029495 -0.068222 20.990700 -40.985400 0.000008 0.000006 0.146725 4.519010 -63.439200 -11.754300 -0.000006 -0.000006 -0.002907 -0.039545 -18.181300
0.000000 0.000000 0.000000 0.000000 0.000000 -0.000000 -1.253430 92.149600 -1.628160 87.535400 -1.549140 4.278910 15.735700 0.000005 -0.000001 83.388400 84.295800 -82.918300 8.984550 -0.406207 -0.000000 3.572950 -1.329090 0.980628 16.377300 -0.000001 -0.000001 1.670330 -1.182740 1.211780 6.456720 -0.000001 -0.000000 1.689600 -0.628055 0.761828 12.994200 -0.242716 4.980390 -89.026800 -2.785000 -70.730000 5.348090 -0.000007 -0.000001 -51.849900 -6.330620 -19.412600 24.328600 0.000019 0.000005 3.030210 6.708290 -24.378100 22.291600 -0.000001 0.000005 12.082500 5.628320 -13.212500 12.994500 -0.242716 -4.980390 88.898600 3.229140 -71.155000 -5.348130 -0.000001 -0.000004 -51.025400 -5.330660 -23.342300 -24.328900 0.000322 -0.000009 0.762779 2.889570 -14.813800 -22.291500 -0.000108 -0.000004 15.429800 5.554340 -8.912730 -2.192480 -6.469440 -0.000000 -169.394000 -20.092600 -3.320490 39.081100 -0.000007 -0.000012 -0.131096 0.305360 23.234800 40.985400 -0.000006 -0.000013 -5.320460 0.092258 -63.375900 11.754300 -0.000000 0.000003 -0.000174 -0.001645 -16.639800 -2.192510 6.469440 -0.000001 175.174000 24.194100 178.887000 -39.081100 -0.002282 -0.040193 0.029900 -0.069393 20.959100 -40.985400 0.000008 0.000006 0.142798 4.480440 -63.399300 -11.754300 -0.000006 -0.000006 -0.003177 -0.042584 -18.305000
